<svg xmlns="http://www.w3.org/2000/svg" xmlns:xlink="http://www.w3.org/1999/xlink" width="2523pt" height="595pt" viewBox="0.00 0.00 2523.00 595.00">
<g id="graph0" class="graph" transform="scale(1 1) rotate(0) translate(4 591)">
<title>G</title>
<polygon fill="white" stroke="none" points="-4,4 -4,-591 2519.13,-591 2519.13,4 -4,4"/>
<g id="clust1" class="cluster">
<title>cluster_video</title>
<polygon fill="none" stroke="blue" points="14.67,-8 14.67,-193 2507.13,-193 2507.13,-8 14.67,-8"/>
<text xml:space="preserve" text-anchor="middle" x="1260.9" y="-176.4" font-family="Times,serif" font-size="14.00">Video Processing &amp; Mixing</text>
</g>
<g id="clust2" class="cluster">
<title>cluster_audio_sel</title>
<polygon fill="none" stroke="green" points="8,-201 8,-278 632.33,-278 632.33,-201 8,-201"/>
<text xml:space="preserve" text-anchor="middle" x="320.17" y="-261.4" font-family="Times,serif" font-size="14.00">Audio Selector</text>
</g>
<g id="clust3" class="cluster">
<title>cluster_audio_mix</title>
<polygon fill="none" stroke="purple" points="12.45,-286 12.45,-579 1535.99,-579 1535.99,-286 12.45,-286"/>
<text xml:space="preserve" text-anchor="middle" x="774.22" y="-562.4" font-family="Times,serif" font-size="14.00">Audio Mixing (agrp_pgm_stereo)</text>
</g>
<!-- comp -->
<g id="node1" class="node">
<title>comp</title>
<polygon fill="lightblue" stroke="lightgrey" points="810.79,-106 745.89,-106 745.89,-70 810.79,-70 810.79,-106"/>
<text xml:space="preserve" text-anchor="middle" x="778.34" y="-91" font-family="Arial" font-size="10.00">compositor</text>
<text xml:space="preserve" text-anchor="middle" x="778.34" y="-79" font-family="Arial" font-size="10.00">(comp)</text>
</g>
<!-- videoconvert (3) -->
<g id="node15" class="node">
<title>videoconvert (3)</title>
<polygon fill="lightgrey" stroke="lightgrey" points="979.97,-106 892.27,-106 892.27,-70 979.97,-70 979.97,-106"/>
<text xml:space="preserve" text-anchor="middle" x="936.12" y="-85" font-family="Arial" font-size="10.00">videoconvert (3)</text>
</g>
<!-- comp&#45;&gt;videoconvert (3) -->
<g id="edge11" class="edge">
<title>comp-&gt;videoconvert (3)</title>
<path fill="none" stroke="black" d="M811.24,-88C831.19,-88 857.41,-88 880.59,-88"/>
<polygon fill="black" stroke="black" points="880.52,-91.5 890.52,-88 880.52,-84.5 880.52,-91.5"/>
</g>
<!-- rec_pgm_tee -->
<g id="node2" class="node">
<title>rec_pgm_tee</title>
<polygon fill="orange" stroke="lightgrey" points="1262.19,-106 1181.16,-106 1181.16,-70 1262.19,-70 1262.19,-106"/>
<text xml:space="preserve" text-anchor="middle" x="1221.67" y="-91" font-family="Arial" font-size="10.00">tee</text>
<text xml:space="preserve" text-anchor="middle" x="1221.67" y="-79" font-family="Arial" font-size="10.00">(rec_pgm_tee)</text>
</g>
<!-- queue (rec) -->
<g id="node17" class="node">
<title>queue (rec)</title>
<polygon fill="lightgrey" stroke="lightgrey" points="1398.02,-52 1330.88,-52 1330.88,-16 1398.02,-16 1398.02,-52"/>
<text xml:space="preserve" text-anchor="middle" x="1364.45" y="-31" font-family="Arial" font-size="10.00">queue (rec)</text>
</g>
<!-- rec_pgm_tee&#45;&gt;queue (rec) -->
<g id="edge14" class="edge">
<title>rec_pgm_tee-&gt;queue (rec)</title>
<path fill="none" stroke="black" d="M1262.64,-72.67C1280.49,-65.82 1301.58,-57.73 1319.84,-50.73"/>
<polygon fill="pink" stroke="black" points="1321.01,-54.03 1329.1,-47.18 1318.51,-47.49 1321.01,-54.03"/>
</g>
<!-- gdkpixbufoverlay\n(branding) -->
<g id="node19" class="node">
<title>gdkpixbufoverlay\n(branding)</title>
<polygon fill="lightgrey" stroke="lightgrey" points="1409.97,-106 1318.93,-106 1318.93,-70 1409.97,-70 1409.97,-106"/>
<text xml:space="preserve" text-anchor="middle" x="1364.45" y="-91" font-family="Arial" font-size="10.00">gdkpixbufoverlay</text>
<text xml:space="preserve" text-anchor="middle" x="1364.45" y="-79" font-family="Arial" font-size="10.00">(branding)</text>
</g>
<!-- rec_pgm_tee&#45;&gt;gdkpixbufoverlay\n(branding) -->
<g id="edge16" class="edge">
<title>rec_pgm_tee-&gt;gdkpixbufoverlay\n(branding)</title>
<path fill="none" stroke="black" d="M1262.64,-88C1276.5,-88 1292.31,-88 1307.23,-88"/>
<polygon fill="black" stroke="black" points="1306.91,-91.5 1316.91,-88 1306.91,-84.5 1306.91,-91.5"/>
</g>
<!-- vtee -->
<g id="node3" class="node">
<title>vtee</title>
<polygon fill="orange" stroke="lightgrey" points="1618.99,-106 1564.99,-106 1564.99,-70 1618.99,-70 1618.99,-106"/>
<text xml:space="preserve" text-anchor="middle" x="1591.99" y="-91" font-family="Arial" font-size="10.00">tee</text>
<text xml:space="preserve" text-anchor="middle" x="1591.99" y="-79" font-family="Arial" font-size="10.00">(vtee)</text>
</g>
<!-- queue (vsink) -->
<g id="node21" class="node">
<title>queue (vsink)</title>
<polygon fill="lightgrey" stroke="lightgrey" points="1732.58,-52 1656.56,-52 1656.56,-16 1732.58,-16 1732.58,-52"/>
<text xml:space="preserve" text-anchor="middle" x="1694.57" y="-31" font-family="Arial" font-size="10.00">queue (vsink)</text>
</g>
<!-- vtee&#45;&gt;queue (vsink) -->
<g id="edge19" class="edge">
<title>vtee-&gt;queue (vsink)</title>
<path fill="none" stroke="black" d="M1619.42,-73.81C1628.59,-68.89 1639.13,-63.23 1649.34,-57.75"/>
<polygon fill="pink" stroke="black" points="1650.88,-60.89 1658.03,-53.08 1647.57,-54.73 1650.88,-60.89"/>
</g>
<!-- queue (prev) -->
<g id="node23" class="node">
<title>queue (prev)</title>
<polygon fill="lightgrey" stroke="lightgrey" points="1730.92,-106 1658.22,-106 1658.22,-70 1730.92,-70 1730.92,-106"/>
<text xml:space="preserve" text-anchor="middle" x="1694.57" y="-85" font-family="Arial" font-size="10.00">queue (prev)</text>
</g>
<!-- vtee&#45;&gt;queue (prev) -->
<g id="edge21" class="edge">
<title>vtee-&gt;queue (prev)</title>
<path fill="none" stroke="black" d="M1619.42,-88C1627.78,-88 1637.28,-88 1646.63,-88"/>
<polygon fill="pink" stroke="black" points="1646.35,-91.5 1656.35,-88 1646.35,-84.5 1646.35,-91.5"/>
</g>
<!-- queue (clean) -->
<g id="node28" class="node">
<title>queue (clean)</title>
<polygon fill="lightgrey" stroke="lightgrey" points="1733.15,-160 1655.99,-160 1655.99,-124 1733.15,-124 1733.15,-160"/>
<text xml:space="preserve" text-anchor="middle" x="1694.57" y="-139" font-family="Arial" font-size="10.00">queue (clean)</text>
</g>
<!-- vtee&#45;&gt;queue (clean) -->
<g id="edge26" class="edge">
<title>vtee-&gt;queue (clean)</title>
<path fill="none" stroke="black" d="M1619.42,-102.19C1628.59,-107.11 1639.13,-112.77 1649.34,-118.25"/>
<polygon fill="black" stroke="black" points="1647.57,-121.27 1658.03,-122.92 1650.88,-115.11 1647.57,-121.27"/>
</g>
<!-- rec_clean_tee -->
<g id="node4" class="node">
<title>rec_clean_tee</title>
<polygon fill="orange" stroke="lightgrey" points="2095.58,-160 2010.1,-160 2010.1,-124 2095.58,-124 2095.58,-160"/>
<text xml:space="preserve" text-anchor="middle" x="2052.84" y="-145" font-family="Arial" font-size="10.00">tee</text>
<text xml:space="preserve" text-anchor="middle" x="2052.84" y="-133" font-family="Arial" font-size="10.00">(rec_clean_tee)</text>
</g>
<!-- queue (rec_c) -->
<g id="node31" class="node">
<title>queue (rec_c)</title>
<polygon fill="lightgrey" stroke="lightgrey" points="2215.28,-106 2137.58,-106 2137.58,-70 2215.28,-70 2215.28,-106"/>
<text xml:space="preserve" text-anchor="middle" x="2176.43" y="-85" font-family="Arial" font-size="10.00">queue (rec_c)</text>
</g>
<!-- rec_clean_tee&#45;&gt;queue (rec_c) -->
<g id="edge30" class="edge">
<title>rec_clean_tee-&gt;queue (rec_c)</title>
<path fill="none" stroke="black" d="M2095.34,-123.57C2105.56,-119.03 2116.59,-114.13 2127.09,-109.47"/>
<polygon fill="pink" stroke="black" points="2128.28,-112.77 2136,-105.51 2125.44,-106.37 2128.28,-112.77"/>
</g>
<!-- videoconvert (5) -->
<g id="node33" class="node">
<title>videoconvert (5)</title>
<polygon fill="lightgrey" stroke="lightgrey" points="2220.28,-160 2132.58,-160 2132.58,-124 2220.28,-124 2220.28,-160"/>
<text xml:space="preserve" text-anchor="middle" x="2176.43" y="-139" font-family="Arial" font-size="10.00">videoconvert (5)</text>
</g>
<!-- rec_clean_tee&#45;&gt;videoconvert (5) -->
<g id="edge32" class="edge">
<title>rec_clean_tee-&gt;videoconvert (5)</title>
<path fill="none" stroke="black" stroke-dasharray="5,2" d="M2096.02,-142C2103.95,-142 2112.34,-142 2120.59,-142"/>
<polygon fill="black" stroke="black" points="2120.57,-145.5 2130.57,-142 2120.57,-138.5 2120.57,-145.5"/>
</g>
<!-- isel_bg -->
<g id="node5" class="node">
<title>isel_bg</title>
<polygon fill="lightgrey" stroke="lightgrey" points="98.7,-52 22.67,-52 22.67,-16 98.7,-16 98.7,-52"/>
<text xml:space="preserve" text-anchor="middle" x="60.69" y="-37" font-family="Arial" font-size="10.00">input-selector</text>
<text xml:space="preserve" text-anchor="middle" x="60.69" y="-25" font-family="Arial" font-size="10.00">(isel_bg)</text>
</g>
<!-- videoconvert (1) -->
<g id="node8" class="node">
<title>videoconvert (1)</title>
<polygon fill="lightgrey" stroke="lightgrey" points="261.09,-52 173.39,-52 173.39,-16 261.09,-16 261.09,-52"/>
<text xml:space="preserve" text-anchor="middle" x="217.24" y="-31" font-family="Arial" font-size="10.00">videoconvert (1)</text>
</g>
<!-- isel_bg&#45;&gt;videoconvert (1) -->
<g id="edge1" class="edge">
<title>isel_bg-&gt;videoconvert (1)</title>
<path fill="none" stroke="black" d="M99.1,-34C117.95,-34 141.15,-34 161.91,-34"/>
<polygon fill="black" stroke="black" points="161.65,-37.5 171.65,-34 161.64,-30.5 161.65,-37.5"/>
<text xml:space="preserve" text-anchor="middle" x="139.38" y="-36.4" font-family="Arial" font-size="8.00">sink_0</text>
</g>
<!-- isel -->
<g id="node6" class="node">
<title>isel</title>
<polygon fill="lightgrey" stroke="lightgrey" points="98.7,-106 22.67,-106 22.67,-70 98.7,-70 98.7,-106"/>
<text xml:space="preserve" text-anchor="middle" x="60.69" y="-91" font-family="Arial" font-size="10.00">input-selector</text>
<text xml:space="preserve" text-anchor="middle" x="60.69" y="-79" font-family="Arial" font-size="10.00">(isel)</text>
</g>
<!-- videoconvert (2) -->
<g id="node11" class="node">
<title>videoconvert (2)</title>
<polygon fill="lightgrey" stroke="lightgrey" points="261.09,-106 173.39,-106 173.39,-70 261.09,-70 261.09,-106"/>
<text xml:space="preserve" text-anchor="middle" x="217.24" y="-85" font-family="Arial" font-size="10.00">videoconvert (2)</text>
</g>
<!-- isel&#45;&gt;videoconvert (2) -->
<g id="edge5" class="edge">
<title>isel-&gt;videoconvert (2)</title>
<path fill="none" stroke="black" d="M99.1,-88C117.95,-88 141.15,-88 161.91,-88"/>
<polygon fill="black" stroke="black" points="161.65,-91.5 171.65,-88 161.64,-84.5 161.65,-91.5"/>
<text xml:space="preserve" text-anchor="middle" x="139.38" y="-90.4" font-family="Arial" font-size="8.00">sink_1</text>
</g>
<!-- grafikSrc -->
<g id="node7" class="node">
<title>grafikSrc</title>
<polygon fill="green" stroke="lightgrey" points="429.03,-160 366.92,-160 366.92,-124 429.03,-124 429.03,-160"/>
<text xml:space="preserve" text-anchor="middle" x="397.98" y="-145" font-family="Arial" font-size="10.00">appsrc</text>
<text xml:space="preserve" text-anchor="middle" x="397.98" y="-133" font-family="Arial" font-size="10.00">(grafikSrc)</text>
</g>
<!-- queue (comp 2) -->
<g id="node14" class="node">
<title>queue (comp 2)</title>
<polygon fill="lightgrey" stroke="lightgrey" points="640.35,-160 554.31,-160 554.31,-124 640.35,-124 640.35,-160"/>
<text xml:space="preserve" text-anchor="middle" x="597.33" y="-139" font-family="Arial" font-size="10.00">queue (comp 2)</text>
</g>
<!-- grafikSrc&#45;&gt;queue (comp 2) -->
<g id="edge9" class="edge">
<title>grafikSrc-&gt;queue (comp 2)</title>
<path fill="none" stroke="black" d="M429.38,-142C459.53,-142 506.35,-142 542.75,-142"/>
<polygon fill="black" stroke="black" points="542.65,-145.5 552.65,-142 542.65,-138.5 542.65,-145.5"/>
<text xml:space="preserve" text-anchor="middle" x="496.4" y="-144.4" font-family="Arial" font-size="8.00">sink_2</text>
</g>
<!-- alpha (fg) -->
<g id="node9" class="node">
<title>alpha (fg)</title>
<polygon fill="lightgrey" stroke="lightgrey" points="427.1,-52 368.85,-52 368.85,-16 427.1,-16 427.1,-52"/>
<text xml:space="preserve" text-anchor="middle" x="397.98" y="-31" font-family="Arial" font-size="10.00">alpha (fg)</text>
</g>
<!-- videoconvert (1)&#45;&gt;alpha (fg) -->
<g id="edge2" class="edge">
<title>videoconvert (1)-&gt;alpha (fg)</title>
<path fill="none" stroke="black" d="M261.51,-34C290.62,-34 328.71,-34 357.09,-34"/>
<polygon fill="black" stroke="black" points="357.09,-37.5 367.09,-34 357.09,-30.5 357.09,-37.5"/>
<text xml:space="preserve" text-anchor="middle" x="295.1" y="-36.4" font-family="Arial" font-size="8.00">sink_0</text>
</g>
<!-- queue (comp 0) -->
<g id="node10" class="node">
<title>queue (comp 0)</title>
<polygon fill="lightgrey" stroke="lightgrey" points="640.35,-52 554.31,-52 554.31,-16 640.35,-16 640.35,-52"/>
<text xml:space="preserve" text-anchor="middle" x="597.33" y="-31" font-family="Arial" font-size="10.00">queue (comp 0)</text>
</g>
<!-- alpha (fg)&#45;&gt;queue (comp 0) -->
<g id="edge3" class="edge">
<title>alpha (fg)-&gt;queue (comp 0)</title>
<path fill="none" stroke="black" d="M427.25,-34C457.29,-34 505.49,-34 542.76,-34"/>
<polygon fill="black" stroke="black" points="542.43,-37.5 552.43,-34 542.43,-30.5 542.43,-37.5"/>
<text xml:space="preserve" text-anchor="middle" x="496.4" y="-36.4" font-family="Arial" font-size="8.00">sink_0</text>
</g>
<!-- queue (comp 0)&#45;&gt;comp -->
<g id="edge4" class="edge">
<title>queue (comp 0)-&gt;comp</title>
<path fill="none" stroke="black" d="M640.75,-46.8C669.14,-55.36 706.36,-66.59 734.77,-75.16"/>
<polygon fill="black" stroke="black" points="733.55,-78.45 744.14,-77.98 735.57,-71.74 733.55,-78.45"/>
<text xml:space="preserve" text-anchor="middle" x="698.26" y="-69.82" font-family="Arial" font-size="8.00">sink_0</text>
</g>
<!-- alpha (bg) -->
<g id="node12" class="node">
<title>alpha (bg)</title>
<polygon fill="lightgrey" stroke="lightgrey" points="428.49,-106 367.46,-106 367.46,-70 428.49,-70 428.49,-106"/>
<text xml:space="preserve" text-anchor="middle" x="397.98" y="-85" font-family="Arial" font-size="10.00">alpha (bg)</text>
</g>
<!-- videoconvert (2)&#45;&gt;alpha (bg) -->
<g id="edge6" class="edge">
<title>videoconvert (2)-&gt;alpha (bg)</title>
<path fill="none" stroke="black" d="M261.51,-88C290.08,-88 327.3,-88 355.49,-88"/>
<polygon fill="black" stroke="black" points="355.46,-91.5 365.46,-88 355.46,-84.5 355.46,-91.5"/>
<text xml:space="preserve" text-anchor="middle" x="295.1" y="-90.4" font-family="Arial" font-size="8.00">sink_1</text>
</g>
<!-- queue (comp 1) -->
<g id="node13" class="node">
<title>queue (comp 1)</title>
<polygon fill="lightgrey" stroke="lightgrey" points="640.35,-106 554.31,-106 554.31,-70 640.35,-70 640.35,-106"/>
<text xml:space="preserve" text-anchor="middle" x="597.33" y="-85" font-family="Arial" font-size="10.00">queue (comp 1)</text>
</g>
<!-- alpha (bg)&#45;&gt;queue (comp 1) -->
<g id="edge7" class="edge">
<title>alpha (bg)-&gt;queue (comp 1)</title>
<path fill="none" stroke="black" d="M428.95,-88C459.02,-88 505.97,-88 542.51,-88"/>
<polygon fill="black" stroke="black" points="542.46,-91.5 552.46,-88 542.46,-84.5 542.46,-91.5"/>
<text xml:space="preserve" text-anchor="middle" x="496.4" y="-90.4" font-family="Arial" font-size="8.00">sink_1</text>
</g>
<!-- queue (comp 1)&#45;&gt;comp -->
<g id="edge8" class="edge">
<title>queue (comp 1)-&gt;comp</title>
<path fill="none" stroke="black" d="M640.75,-88C669.01,-88 706.03,-88 734.4,-88"/>
<polygon fill="black" stroke="black" points="734.07,-91.5 744.07,-88 734.07,-84.5 734.07,-91.5"/>
<text xml:space="preserve" text-anchor="middle" x="698.26" y="-90.4" font-family="Arial" font-size="8.00">sink_1</text>
</g>
<!-- queue (comp 2)&#45;&gt;comp -->
<g id="edge10" class="edge">
<title>queue (comp 2)-&gt;comp</title>
<path fill="none" stroke="black" d="M640.75,-129.2C669.14,-120.64 706.36,-109.41 734.77,-100.84"/>
<polygon fill="black" stroke="black" points="735.57,-104.26 744.14,-98.02 733.55,-97.55 735.57,-104.26"/>
<text xml:space="preserve" text-anchor="middle" x="698.26" y="-117.4" font-family="Arial" font-size="8.00">sink_2</text>
</g>
<!-- caps: 640x360 -->
<g id="node16" class="node">
<title>caps: 640x360</title>
<polygon fill="lightgrey" stroke="lightgrey" points="1124.42,-106 1043.37,-106 1043.37,-70 1124.42,-70 1124.42,-106"/>
<text xml:space="preserve" text-anchor="middle" x="1083.89" y="-85" font-family="Arial" font-size="10.00">caps: 640x360</text>
</g>
<!-- videoconvert (3)&#45;&gt;caps: 640x360 -->
<g id="edge12" class="edge">
<title>videoconvert (3)-&gt;caps: 640x360</title>
<path fill="none" stroke="black" d="M980.46,-88C996.55,-88 1014.96,-88 1031.69,-88"/>
<polygon fill="black" stroke="black" points="1031.44,-91.5 1041.44,-88 1031.44,-84.5 1031.44,-91.5"/>
</g>
<!-- caps: 640x360&#45;&gt;rec_pgm_tee -->
<g id="edge13" class="edge">
<title>caps: 640x360-&gt;rec_pgm_tee</title>
<path fill="none" stroke="black" d="M1124.9,-88C1138.99,-88 1155.01,-88 1169.87,-88"/>
<polygon fill="black" stroke="black" points="1169.44,-91.5 1179.44,-88 1169.44,-84.5 1169.44,-91.5"/>
</g>
<!-- intervideosink\n(rec_pgm_v) -->
<g id="node18" class="node">
<title>intervideosink\n(rec_pgm_v)</title>
<polygon fill="lightgrey" stroke="lightgrey" points="1526.05,-52 1448.91,-52 1448.91,-16 1526.05,-16 1526.05,-52"/>
<text xml:space="preserve" text-anchor="middle" x="1487.48" y="-37" font-family="Arial" font-size="10.00">intervideosink</text>
<text xml:space="preserve" text-anchor="middle" x="1487.48" y="-25" font-family="Arial" font-size="10.00">(rec_pgm_v)</text>
</g>
<!-- queue (rec)&#45;&gt;intervideosink\n(rec_pgm_v) -->
<g id="edge15" class="edge">
<title>queue (rec)-&gt;intervideosink\n(rec_pgm_v)</title>
<path fill="none" stroke="black" d="M1398.2,-34C1410.22,-34 1424.11,-34 1437.26,-34"/>
<polygon fill="pink" stroke="black" points="1437.04,-37.5 1447.04,-34 1437.04,-30.5 1437.04,-37.5"/>
</g>
<!-- identity\n(vdel) -->
<g id="node20" class="node">
<title>identity\n(vdel)</title>
<polygon fill="lightgrey" stroke="lightgrey" points="1514.48,-106 1460.48,-106 1460.48,-70 1514.48,-70 1514.48,-106"/>
<text xml:space="preserve" text-anchor="middle" x="1487.48" y="-91" font-family="Arial" font-size="10.00">identity</text>
<text xml:space="preserve" text-anchor="middle" x="1487.48" y="-79" font-family="Arial" font-size="10.00">(vdel)</text>
</g>
<!-- gdkpixbufoverlay\n(branding)&#45;&gt;identity\n(vdel) -->
<g id="edge17" class="edge">
<title>gdkpixbufoverlay\n(branding)-&gt;identity\n(vdel)</title>
<path fill="none" stroke="black" d="M1410.17,-88C1422.93,-88 1436.69,-88 1448.97,-88"/>
<polygon fill="black" stroke="black" points="1448.7,-91.5 1458.7,-88 1448.7,-84.5 1448.7,-91.5"/>
</g>
<!-- identity\n(vdel)&#45;&gt;vtee -->
<g id="edge18" class="edge">
<title>identity\n(vdel)-&gt;vtee</title>
<path fill="none" stroke="black" d="M1514.88,-88C1526.6,-88 1540.6,-88 1553.39,-88"/>
<polygon fill="black" stroke="black" points="1553.17,-91.5 1563.17,-88 1553.17,-84.5 1553.17,-91.5"/>
</g>
<!-- ximagesink\n(vsink) -->
<g id="node22" class="node">
<title>ximagesink\n(vsink)</title>
<polygon fill="lightgrey" stroke="lightgrey" points="1847.01,-52 1780.99,-52 1780.99,-16 1847.01,-16 1847.01,-52"/>
<text xml:space="preserve" text-anchor="middle" x="1814" y="-37" font-family="Arial" font-size="10.00">ximagesink</text>
<text xml:space="preserve" text-anchor="middle" x="1814" y="-25" font-family="Arial" font-size="10.00">(vsink)</text>
</g>
<!-- queue (vsink)&#45;&gt;ximagesink\n(vsink) -->
<g id="edge20" class="edge">
<title>queue (vsink)-&gt;ximagesink\n(vsink)</title>
<path fill="none" stroke="black" d="M1733.05,-34C1744.52,-34 1757.25,-34 1769.12,-34"/>
<polygon fill="pink" stroke="black" points="1769.1,-37.5 1779.1,-34 1769.1,-30.5 1769.1,-37.5"/>
</g>
<!-- videoconvert (4) -->
<g id="node24" class="node">
<title>videoconvert (4)</title>
<polygon fill="lightgrey" stroke="lightgrey" points="1857.85,-106 1770.15,-106 1770.15,-70 1857.85,-70 1857.85,-106"/>
<text xml:space="preserve" text-anchor="middle" x="1814" y="-85" font-family="Arial" font-size="10.00">videoconvert (4)</text>
</g>
<!-- queue (prev)&#45;&gt;videoconvert (4) -->
<g id="edge22" class="edge">
<title>queue (prev)-&gt;videoconvert (4)</title>
<path fill="none" stroke="black" d="M1731.12,-88C1739.66,-88 1748.99,-88 1758.18,-88"/>
<polygon fill="pink" stroke="black" points="1758.18,-91.5 1768.18,-88 1758.18,-84.5 1758.18,-91.5"/>
</g>
<!-- videoscale (1) -->
<g id="node25" class="node">
<title>videoscale (1)</title>
<polygon fill="lightgrey" stroke="lightgrey" points="1973.1,-106 1894.85,-106 1894.85,-70 1973.1,-70 1973.1,-106"/>
<text xml:space="preserve" text-anchor="middle" x="1933.97" y="-85" font-family="Arial" font-size="10.00">videoscale (1)</text>
</g>
<!-- videoconvert (4)&#45;&gt;videoscale (1) -->
<g id="edge23" class="edge">
<title>videoconvert (4)-&gt;videoscale (1)</title>
<path fill="none" stroke="black" d="M1858.26,-88C1866.3,-88 1874.77,-88 1883,-88"/>
<polygon fill="pink" stroke="black" points="1882.88,-91.5 1892.88,-88 1882.88,-84.5 1882.88,-91.5"/>
</g>
<!-- videorate (1) -->
<g id="node26" class="node">
<title>videorate (1)</title>
<polygon fill="lightgrey" stroke="lightgrey" points="2088.91,-79 2016.77,-79 2016.77,-43 2088.91,-43 2088.91,-79"/>
<text xml:space="preserve" text-anchor="middle" x="2052.84" y="-58" font-family="Arial" font-size="10.00">videorate (1)</text>
</g>
<!-- videoscale (1)&#45;&gt;videorate (1) -->
<g id="edge24" class="edge">
<title>videoscale (1)-&gt;videorate (1)</title>
<path fill="none" stroke="black" d="M1973.56,-79.08C1983.72,-76.74 1994.78,-74.18 2005.31,-71.75"/>
<polygon fill="pink" stroke="black" points="2006.02,-75.18 2014.97,-69.52 2004.44,-68.36 2006.02,-75.18"/>
</g>
<!-- intervideosink\n(preview) -->
<g id="node27" class="node">
<title>intervideosink\n(preview)</title>
<polygon fill="lightgrey" stroke="lightgrey" points="2215,-52 2137.86,-52 2137.86,-16 2215,-16 2215,-52"/>
<text xml:space="preserve" text-anchor="middle" x="2176.43" y="-37" font-family="Arial" font-size="10.00">intervideosink</text>
<text xml:space="preserve" text-anchor="middle" x="2176.43" y="-25" font-family="Arial" font-size="10.00">(preview)</text>
</g>
<!-- videorate (1)&#45;&gt;intervideosink\n(preview) -->
<g id="edge25" class="edge">
<title>videorate (1)-&gt;intervideosink\n(preview)</title>
<path fill="none" stroke="black" d="M2089.33,-53.12C2100.93,-50.54 2114.01,-47.64 2126.42,-44.88"/>
<polygon fill="pink" stroke="black" points="2127.07,-48.32 2136.08,-42.74 2125.56,-41.49 2127.07,-48.32"/>
</g>
<!-- videoscale (2) -->
<g id="node29" class="node">
<title>videoscale (2)</title>
<polygon fill="lightgrey" stroke="lightgrey" points="1853.12,-160 1774.87,-160 1774.87,-124 1853.12,-124 1853.12,-160"/>
<text xml:space="preserve" text-anchor="middle" x="1814" y="-139" font-family="Arial" font-size="10.00">videoscale (2)</text>
</g>
<!-- queue (clean)&#45;&gt;videoscale (2) -->
<g id="edge27" class="edge">
<title>queue (clean)-&gt;videoscale (2)</title>
<path fill="none" stroke="black" d="M1733.37,-142C1742.82,-142 1753.09,-142 1763.03,-142"/>
<polygon fill="black" stroke="black" points="1762.95,-145.5 1772.95,-142 1762.95,-138.5 1762.95,-145.5"/>
</g>
<!-- videorate (2) -->
<g id="node30" class="node">
<title>videorate (2)</title>
<polygon fill="lightgrey" stroke="lightgrey" points="1970.04,-160 1897.9,-160 1897.9,-124 1970.04,-124 1970.04,-160"/>
<text xml:space="preserve" text-anchor="middle" x="1933.97" y="-139" font-family="Arial" font-size="10.00">videorate (2)</text>
</g>
<!-- videoscale (2)&#45;&gt;videorate (2) -->
<g id="edge28" class="edge">
<title>videoscale (2)-&gt;videorate (2)</title>
<path fill="none" stroke="black" d="M1853.3,-142C1863.89,-142 1875.49,-142 1886.49,-142"/>
<polygon fill="black" stroke="black" points="1886.14,-145.5 1896.14,-142 1886.14,-138.5 1886.14,-145.5"/>
</g>
<!-- videorate (2)&#45;&gt;rec_clean_tee -->
<g id="edge29" class="edge">
<title>videorate (2)-&gt;rec_clean_tee</title>
<path fill="none" stroke="black" d="M1970.35,-142C1979.24,-142 1988.97,-142 1998.51,-142"/>
<polygon fill="black" stroke="black" points="1998.48,-145.5 2008.48,-142 1998.48,-138.5 1998.48,-145.5"/>
</g>
<!-- intervideosink\n(rec_clean_v) -->
<g id="node32" class="node">
<title>intervideosink\n(rec_clean_v)</title>
<polygon fill="lightgrey" stroke="lightgrey" points="2334.42,-106 2257.28,-106 2257.28,-70 2334.42,-70 2334.42,-106"/>
<text xml:space="preserve" text-anchor="middle" x="2295.85" y="-91" font-family="Arial" font-size="10.00">intervideosink</text>
<text xml:space="preserve" text-anchor="middle" x="2295.85" y="-79" font-family="Arial" font-size="10.00">(rec_clean_v)</text>
</g>
<!-- queue (rec_c)&#45;&gt;intervideosink\n(rec_clean_v) -->
<g id="edge31" class="edge">
<title>queue (rec_c)-&gt;intervideosink\n(rec_clean_v)</title>
<path fill="none" stroke="black" d="M2215.55,-88C2225.08,-88 2235.44,-88 2245.43,-88"/>
<polygon fill="pink" stroke="black" points="2245.4,-91.5 2255.4,-88 2245.4,-84.5 2245.4,-91.5"/>
</g>
<!-- caps: RGBA -->
<g id="node34" class="node">
<title>caps: RGBA</title>
<polygon fill="lightgrey" stroke="lightgrey" points="2331.36,-160 2260.34,-160 2260.34,-124 2331.36,-124 2331.36,-160"/>
<text xml:space="preserve" text-anchor="middle" x="2295.85" y="-139" font-family="Arial" font-size="10.00">caps: RGBA</text>
</g>
<!-- videoconvert (5)&#45;&gt;caps: RGBA -->
<g id="edge33" class="edge">
<title>videoconvert (5)-&gt;caps: RGBA</title>
<path fill="none" stroke="black" stroke-dasharray="5,2" d="M2220.49,-142C2229.6,-142 2239.25,-142 2248.48,-142"/>
<polygon fill="black" stroke="black" points="2248.36,-145.5 2258.36,-142 2248.36,-138.5 2248.36,-145.5"/>
</g>
<!-- Weg zurück zu isel_bg/fg -->
<g id="node35" class="node">
<title>Weg zurück zu isel_bg/fg</title>
<polygon fill="lightgrey" stroke="lightgrey" points="2499.13,-160 2371.42,-160 2371.42,-124 2499.13,-124 2499.13,-160"/>
<text xml:space="preserve" text-anchor="middle" x="2435.28" y="-139" font-family="Arial" font-size="10.00">Weg zurück zu isel_bg/fg</text>
</g>
<!-- caps: RGBA&#45;&gt;Weg zurück zu isel_bg/fg -->
<g id="edge34" class="edge">
<title>caps: RGBA-&gt;Weg zurück zu isel_bg/fg</title>
<path fill="none" stroke="black" stroke-dasharray="5,2" d="M2331.53,-142C2340.16,-142 2349.75,-142 2359.5,-142"/>
<polygon fill="black" stroke="black" points="2359.46,-145.5 2369.46,-142 2359.46,-138.5 2359.46,-145.5"/>
</g>
<!-- aisel_pgm -->
<g id="node36" class="node">
<title>aisel_pgm</title>
<polygon fill="lightblue" stroke="lightgrey" points="435.99,-245 359.96,-245 359.96,-209 435.99,-209 435.99,-245"/>
<text xml:space="preserve" text-anchor="middle" x="397.98" y="-230" font-family="Arial" font-size="10.00">input-selector</text>
<text xml:space="preserve" text-anchor="middle" x="397.98" y="-218" font-family="Arial" font-size="10.00">(aisel_pgm)</text>
</g>
<!-- fakesink -->
<g id="node39" class="node">
<title>fakesink</title>
<polygon fill="lightgrey" stroke="lightgrey" points="624.33,-245 570.33,-245 570.33,-209 624.33,-209 624.33,-245"/>
<text xml:space="preserve" text-anchor="middle" x="597.33" y="-224" font-family="Arial" font-size="10.00">fakesink</text>
</g>
<!-- aisel_pgm&#45;&gt;fakesink -->
<g id="edge37" class="edge">
<title>aisel_pgm-&gt;fakesink</title>
<path fill="none" stroke="black" d="M436.1,-227C471.21,-227 523.63,-227 558.86,-227"/>
<polygon fill="pink" stroke="black" points="558.58,-230.5 568.58,-227 558.58,-223.5 558.58,-230.5"/>
</g>
<!-- audiotestsrc 0..7 -->
<g id="node37" class="node">
<title>audiotestsrc 0..7</title>
<polygon fill="lightgrey" stroke="lightgrey" points="105.37,-245 16,-245 16,-209 105.37,-209 105.37,-245"/>
<text xml:space="preserve" text-anchor="middle" x="60.69" y="-224" font-family="Arial" font-size="10.00">audiotestsrc 0..7</text>
</g>
<!-- queues 0..7 -->
<g id="node38" class="node">
<title>queues 0..7</title>
<polygon fill="lightgrey" stroke="lightgrey" points="251.38,-245 183.11,-245 183.11,-209 251.38,-209 251.38,-245"/>
<text xml:space="preserve" text-anchor="middle" x="217.24" y="-224" font-family="Arial" font-size="10.00">queues 0..7</text>
</g>
<!-- audiotestsrc 0..7&#45;&gt;queues 0..7 -->
<g id="edge35" class="edge">
<title>audiotestsrc 0..7-&gt;queues 0..7</title>
<path fill="none" stroke="black" d="M105.56,-227C126.25,-227 150.89,-227 171.67,-227"/>
<polygon fill="black" stroke="black" points="171.56,-230.5 181.56,-227 171.56,-223.5 171.56,-230.5"/>
<text xml:space="preserve" text-anchor="middle" x="139.38" y="-229.4" font-family="Arial" font-size="8.00">sink_0..7</text>
</g>
<!-- queues 0..7&#45;&gt;aisel_pgm -->
<g id="edge36" class="edge">
<title>queues 0..7-&gt;aisel_pgm</title>
<path fill="none" stroke="black" d="M251.86,-227C279.03,-227 317.65,-227 348.21,-227"/>
<polygon fill="black" stroke="black" points="347.98,-230.5 357.98,-227 347.98,-223.5 347.98,-230.5"/>
<text xml:space="preserve" text-anchor="middle" x="295.1" y="-229.4" font-family="Arial" font-size="8.00">sink_0..7</text>
</g>
<!-- agrp_pgm_stereo -->
<g id="node40" class="node">
<title>agrp_pgm_stereo</title>
<polygon fill="lightblue" stroke="lightgrey" points="828.86,-438 727.82,-438 727.82,-402 828.86,-402 828.86,-438"/>
<text xml:space="preserve" text-anchor="middle" x="778.34" y="-423" font-family="Arial" font-size="10.00">audiomixer</text>
<text xml:space="preserve" text-anchor="middle" x="778.34" y="-411" font-family="Arial" font-size="10.00">(agrp_pgm_stereo)</text>
</g>
<!-- audioconvert/resample (out) -->
<g id="node58" class="node">
<title>audioconvert/resample (out)</title>
<polygon fill="lightgrey" stroke="lightgrey" points="1006.37,-438 865.86,-438 865.86,-402 1006.37,-402 1006.37,-438"/>
<text xml:space="preserve" text-anchor="middle" x="936.12" y="-417" font-family="Arial" font-size="10.00">audioconvert/resample (out)</text>
</g>
<!-- agrp_pgm_stereo&#45;&gt;audioconvert/resample (out) -->
<g id="edge54" class="edge">
<title>agrp_pgm_stereo-&gt;audioconvert/resample (out)</title>
<path fill="none" stroke="black" d="M829.06,-420C837.11,-420 845.62,-420 854.18,-420"/>
<polygon fill="black" stroke="black" points="853.91,-423.5 863.91,-420 853.91,-416.5 853.91,-423.5"/>
</g>
<!-- tee_agrp_pgm_stereo -->
<g id="node41" class="node">
<title>tee_agrp_pgm_stereo</title>
<polygon fill="orange" stroke="lightgrey" points="1281.93,-438 1161.42,-438 1161.42,-402 1281.93,-402 1281.93,-438"/>
<text xml:space="preserve" text-anchor="middle" x="1221.67" y="-423" font-family="Arial" font-size="10.00">tee</text>
<text xml:space="preserve" text-anchor="middle" x="1221.67" y="-411" font-family="Arial" font-size="10.00">(tee_agrp_pgm_stereo)</text>
</g>
<!-- queue (level) -->
<g id="node60" class="node">
<title>queue (level)</title>
<polygon fill="lightgrey" stroke="lightgrey" points="1401.35,-384 1327.54,-384 1327.54,-348 1401.35,-348 1401.35,-384"/>
<text xml:space="preserve" text-anchor="middle" x="1364.45" y="-363" font-family="Arial" font-size="10.00">queue (level)</text>
</g>
<!-- tee_agrp_pgm_stereo&#45;&gt;queue (level) -->
<g id="edge57" class="edge">
<title>tee_agrp_pgm_stereo-&gt;queue (level)</title>
<path fill="none" stroke="black" d="M1270.73,-401.57C1285.6,-395.86 1301.95,-389.59 1316.73,-383.92"/>
<polygon fill="pink" stroke="black" points="1317.67,-387.31 1325.75,-380.46 1315.16,-380.77 1317.67,-387.31"/>
</g>
<!-- queue (rec_a) -->
<g id="node62" class="node">
<title>queue (rec_a)</title>
<polygon fill="lightgrey" stroke="lightgrey" points="1403.58,-438 1325.32,-438 1325.32,-402 1403.58,-402 1403.58,-438"/>
<text xml:space="preserve" text-anchor="middle" x="1364.45" y="-417" font-family="Arial" font-size="10.00">queue (rec_a)</text>
</g>
<!-- tee_agrp_pgm_stereo&#45;&gt;queue (rec_a) -->
<g id="edge59" class="edge">
<title>tee_agrp_pgm_stereo-&gt;queue (rec_a)</title>
<path fill="none" stroke="black" d="M1282.37,-420C1292.72,-420 1303.37,-420 1313.42,-420"/>
<polygon fill="pink" stroke="black" points="1313.37,-423.5 1323.37,-420 1313.37,-416.5 1313.37,-423.5"/>
</g>
<!-- identity\n(adel...) -->
<g id="node64" class="node">
<title>identity\n(adel...)</title>
<polygon fill="lightgrey" stroke="lightgrey" points="1391.45,-492 1337.45,-492 1337.45,-456 1391.45,-456 1391.45,-492"/>
<text xml:space="preserve" text-anchor="middle" x="1364.45" y="-477" font-family="Arial" font-size="10.00">identity</text>
<text xml:space="preserve" text-anchor="middle" x="1364.45" y="-465" font-family="Arial" font-size="10.00">(adel...)</text>
</g>
<!-- tee_agrp_pgm_stereo&#45;&gt;identity\n(adel...) -->
<g id="edge61" class="edge">
<title>tee_agrp_pgm_stereo-&gt;identity\n(adel...)</title>
<path fill="none" stroke="black" d="M1270.73,-438.43C1289.02,-445.45 1309.56,-453.33 1326.65,-459.89"/>
<polygon fill="pink" stroke="black" points="1325.32,-463.12 1335.91,-463.44 1327.83,-456.59 1325.32,-463.12"/>
</g>
<!-- audiotestsrc\n(silence) -->
<g id="node42" class="node">
<title>audiotestsrc\n(silence)</title>
<polygon fill="lightgrey" stroke="lightgrey" points="432.93,-330 363.02,-330 363.02,-294 432.93,-294 432.93,-330"/>
<text xml:space="preserve" text-anchor="middle" x="397.98" y="-315" font-family="Arial" font-size="10.00">audiotestsrc</text>
<text xml:space="preserve" text-anchor="middle" x="397.98" y="-303" font-family="Arial" font-size="10.00">(silence)</text>
</g>
<!-- queue (as1) -->
<g id="node43" class="node">
<title>queue (as1)</title>
<polygon fill="lightgrey" stroke="lightgrey" points="632.01,-330 562.65,-330 562.65,-294 632.01,-294 632.01,-330"/>
<text xml:space="preserve" text-anchor="middle" x="597.33" y="-309" font-family="Arial" font-size="10.00">queue (as1)</text>
</g>
<!-- audiotestsrc\n(silence)&#45;&gt;queue (as1) -->
<g id="edge38" class="edge">
<title>audiotestsrc\n(silence)-&gt;queue (as1)</title>
<path fill="none" stroke="black" d="M433.35,-312C466.04,-312 515.4,-312 551.23,-312"/>
<polygon fill="black" stroke="black" points="550.83,-315.5 560.83,-312 550.83,-308.5 550.83,-315.5"/>
</g>
<!-- queue (as1)&#45;&gt;agrp_pgm_stereo -->
<g id="edge39" class="edge">
<title>queue (as1)-&gt;agrp_pgm_stereo</title>
<path fill="none" stroke="black" d="M632.46,-322.96C644.25,-327.3 657.35,-332.75 668.69,-339 697.24,-354.72 726.7,-377.14 747.73,-394.41"/>
<polygon fill="black" stroke="black" points="745.39,-397.02 755.32,-400.73 749.87,-391.64 745.39,-397.02"/>
</g>
<!-- interaudiosrc\n(player1_pgm) -->
<g id="node44" class="node">
<title>interaudiosrc\n(player1_pgm)</title>
<polygon fill="lightgrey" stroke="lightgrey" points="100.92,-384 20.45,-384 20.45,-348 100.92,-348 100.92,-384"/>
<text xml:space="preserve" text-anchor="middle" x="60.69" y="-369" font-family="Arial" font-size="10.00">interaudiosrc</text>
<text xml:space="preserve" text-anchor="middle" x="60.69" y="-357" font-family="Arial" font-size="10.00">(player1_pgm)</text>
</g>
<!-- queue (p1) -->
<g id="node45" class="node">
<title>queue (p1)</title>
<polygon fill="lightgrey" stroke="lightgrey" points="249.43,-384 185.06,-384 185.06,-348 249.43,-348 249.43,-384"/>
<text xml:space="preserve" text-anchor="middle" x="217.24" y="-363" font-family="Arial" font-size="10.00">queue (p1)</text>
</g>
<!-- interaudiosrc\n(player1_pgm)&#45;&gt;queue (p1) -->
<g id="edge40" class="edge">
<title>interaudiosrc\n(player1_pgm)-&gt;queue (p1)</title>
<path fill="none" stroke="black" d="M101.09,-366C123.17,-366 150.74,-366 173.37,-366"/>
<polygon fill="black" stroke="black" points="173.18,-369.5 183.18,-366 173.18,-362.5 173.18,-369.5"/>
</g>
<!-- audioconvert/resample (p1) -->
<g id="node46" class="node">
<title>audioconvert/resample (p1)</title>
<polygon fill="lightgrey" stroke="lightgrey" points="466.84,-384 329.11,-384 329.11,-348 466.84,-348 466.84,-384"/>
<text xml:space="preserve" text-anchor="middle" x="397.98" y="-363" font-family="Arial" font-size="10.00">audioconvert/resample (p1)</text>
</g>
<!-- queue (p1)&#45;&gt;audioconvert/resample (p1) -->
<g id="edge41" class="edge">
<title>queue (p1)-&gt;audioconvert/resample (p1)</title>
<path fill="none" stroke="black" d="M249.79,-366C268.65,-366 293.53,-366 317.46,-366"/>
<polygon fill="black" stroke="black" points="317.21,-369.5 327.21,-366 317.21,-362.5 317.21,-369.5"/>
</g>
<!-- volume (pvol_player1) -->
<g id="node47" class="node">
<title>volume (pvol_player1)</title>
<polygon fill="lightgrey" stroke="lightgrey" points="654.52,-384 540.14,-384 540.14,-348 654.52,-348 654.52,-384"/>
<text xml:space="preserve" text-anchor="middle" x="597.33" y="-363" font-family="Arial" font-size="10.00">volume (pvol_player1)</text>
</g>
<!-- audioconvert/resample (p1)&#45;&gt;volume (pvol_player1) -->
<g id="edge42" class="edge">
<title>audioconvert/resample (p1)-&gt;volume (pvol_player1)</title>
<path fill="none" stroke="black" d="M467.17,-366C487.01,-366 508.67,-366 528.49,-366"/>
<polygon fill="black" stroke="black" points="528.4,-369.5 538.4,-366 528.4,-362.5 528.4,-369.5"/>
</g>
<!-- volume (pvol_player1)&#45;&gt;agrp_pgm_stereo -->
<g id="edge43" class="edge">
<title>volume (pvol_player1)-&gt;agrp_pgm_stereo</title>
<path fill="none" stroke="black" d="M654.97,-383.09C674.59,-389 696.65,-395.66 716.59,-401.67"/>
<polygon fill="black" stroke="black" points="715.38,-404.97 725.97,-404.5 717.41,-398.26 715.38,-404.97"/>
</g>
<!-- interaudiosrc\n(player2_pgm) -->
<g id="node48" class="node">
<title>interaudiosrc\n(player2_pgm)</title>
<polygon fill="lightgrey" stroke="lightgrey" points="100.92,-438 20.45,-438 20.45,-402 100.92,-402 100.92,-438"/>
<text xml:space="preserve" text-anchor="middle" x="60.69" y="-423" font-family="Arial" font-size="10.00">interaudiosrc</text>
<text xml:space="preserve" text-anchor="middle" x="60.69" y="-411" font-family="Arial" font-size="10.00">(player2_pgm)</text>
</g>
<!-- queue (p2) -->
<g id="node49" class="node">
<title>queue (p2)</title>
<polygon fill="lightgrey" stroke="lightgrey" points="249.43,-438 185.06,-438 185.06,-402 249.43,-402 249.43,-438"/>
<text xml:space="preserve" text-anchor="middle" x="217.24" y="-417" font-family="Arial" font-size="10.00">queue (p2)</text>
</g>
<!-- interaudiosrc\n(player2_pgm)&#45;&gt;queue (p2) -->
<g id="edge44" class="edge">
<title>interaudiosrc\n(player2_pgm)-&gt;queue (p2)</title>
<path fill="none" stroke="black" d="M101.09,-420C123.17,-420 150.74,-420 173.37,-420"/>
<polygon fill="black" stroke="black" points="173.18,-423.5 183.18,-420 173.18,-416.5 173.18,-423.5"/>
</g>
<!-- audioconvert/resample (p2) -->
<g id="node50" class="node">
<title>audioconvert/resample (p2)</title>
<polygon fill="lightgrey" stroke="lightgrey" points="466.84,-438 329.11,-438 329.11,-402 466.84,-402 466.84,-438"/>
<text xml:space="preserve" text-anchor="middle" x="397.98" y="-417" font-family="Arial" font-size="10.00">audioconvert/resample (p2)</text>
</g>
<!-- queue (p2)&#45;&gt;audioconvert/resample (p2) -->
<g id="edge45" class="edge">
<title>queue (p2)-&gt;audioconvert/resample (p2)</title>
<path fill="none" stroke="black" d="M249.79,-420C268.65,-420 293.53,-420 317.46,-420"/>
<polygon fill="black" stroke="black" points="317.21,-423.5 327.21,-420 317.21,-416.5 317.21,-423.5"/>
</g>
<!-- volume (pvol_player2) -->
<g id="node51" class="node">
<title>volume (pvol_player2)</title>
<polygon fill="lightgrey" stroke="lightgrey" points="654.52,-438 540.14,-438 540.14,-402 654.52,-402 654.52,-438"/>
<text xml:space="preserve" text-anchor="middle" x="597.33" y="-417" font-family="Arial" font-size="10.00">volume (pvol_player2)</text>
</g>
<!-- audioconvert/resample (p2)&#45;&gt;volume (pvol_player2) -->
<g id="edge46" class="edge">
<title>audioconvert/resample (p2)-&gt;volume (pvol_player2)</title>
<path fill="none" stroke="black" d="M467.17,-420C487.01,-420 508.67,-420 528.49,-420"/>
<polygon fill="black" stroke="black" points="528.4,-423.5 538.4,-420 528.4,-416.5 528.4,-423.5"/>
</g>
<!-- volume (pvol_player2)&#45;&gt;agrp_pgm_stereo -->
<g id="edge47" class="edge">
<title>volume (pvol_player2)-&gt;agrp_pgm_stereo</title>
<path fill="none" stroke="black" d="M654.97,-420C674.41,-420 696.25,-420 716.04,-420"/>
<polygon fill="black" stroke="black" points="715.9,-423.5 725.9,-420 715.9,-416.5 715.9,-423.5"/>
</g>
<!-- audiotestsrc\n(sine 1000) -->
<g id="node52" class="node">
<title>audiotestsrc\n(sine 1000)</title>
<polygon fill="lightgrey" stroke="lightgrey" points="252.2,-492 182.29,-492 182.29,-456 252.2,-456 252.2,-492"/>
<text xml:space="preserve" text-anchor="middle" x="217.24" y="-477" font-family="Arial" font-size="10.00">audiotestsrc</text>
<text xml:space="preserve" text-anchor="middle" x="217.24" y="-465" font-family="Arial" font-size="10.00">(sine 1000)</text>
</g>
<!-- queue (sine) -->
<g id="node53" class="node">
<title>queue (sine)</title>
<polygon fill="lightgrey" stroke="lightgrey" points="433.77,-492 362.18,-492 362.18,-456 433.77,-456 433.77,-492"/>
<text xml:space="preserve" text-anchor="middle" x="397.98" y="-471" font-family="Arial" font-size="10.00">queue (sine)</text>
</g>
<!-- audiotestsrc\n(sine 1000)&#45;&gt;queue (sine) -->
<g id="edge48" class="edge">
<title>audiotestsrc\n(sine 1000)-&gt;queue (sine)</title>
<path fill="none" stroke="black" d="M252.28,-474C280.12,-474 319.78,-474 350.53,-474"/>
<polygon fill="black" stroke="black" points="350.33,-477.5 360.33,-474 350.33,-470.5 350.33,-477.5"/>
</g>
<!-- volume (smpte_vol) -->
<g id="node54" class="node">
<title>volume (smpte_vol)</title>
<polygon fill="lightgrey" stroke="lightgrey" points="648.96,-492 545.7,-492 545.7,-456 648.96,-456 648.96,-492"/>
<text xml:space="preserve" text-anchor="middle" x="597.33" y="-471" font-family="Arial" font-size="10.00">volume (smpte_vol)</text>
</g>
<!-- queue (sine)&#45;&gt;volume (smpte_vol) -->
<g id="edge49" class="edge">
<title>queue (sine)-&gt;volume (smpte_vol)</title>
<path fill="none" stroke="black" d="M434.26,-474C461.93,-474 501.13,-474 534.05,-474"/>
<polygon fill="black" stroke="black" points="533.89,-477.5 543.89,-474 533.89,-470.5 533.89,-477.5"/>
</g>
<!-- volume (smpte_vol)&#45;&gt;agrp_pgm_stereo -->
<g id="edge50" class="edge">
<title>volume (smpte_vol)-&gt;agrp_pgm_stereo</title>
<path fill="none" stroke="black" d="M649.15,-458.67C670.11,-452.35 694.57,-444.97 716.47,-438.36"/>
<polygon fill="black" stroke="black" points="717.31,-441.76 725.88,-435.53 715.29,-435.06 717.31,-441.76"/>
</g>
<!-- interaudiosrc\n(vo1) -->
<g id="node55" class="node">
<title>interaudiosrc\n(vo1)</title>
<polygon fill="lightgrey" stroke="lightgrey" points="253.87,-546 180.62,-546 180.62,-510 253.87,-510 253.87,-546"/>
<text xml:space="preserve" text-anchor="middle" x="217.24" y="-531" font-family="Arial" font-size="10.00">interaudiosrc</text>
<text xml:space="preserve" text-anchor="middle" x="217.24" y="-519" font-family="Arial" font-size="10.00">(vo1)</text>
</g>
<!-- volume (vo1) -->
<g id="node56" class="node">
<title>volume (vo1)</title>
<polygon fill="lightgrey" stroke="lightgrey" points="434.88,-546 361.08,-546 361.08,-510 434.88,-510 434.88,-546"/>
<text xml:space="preserve" text-anchor="middle" x="397.98" y="-525" font-family="Arial" font-size="10.00">volume (vo1)</text>
</g>
<!-- interaudiosrc\n(vo1)&#45;&gt;volume (vo1) -->
<g id="edge51" class="edge">
<title>interaudiosrc\n(vo1)-&gt;volume (vo1)</title>
<path fill="none" stroke="black" d="M253.98,-528C281.32,-528 319.29,-528 349.23,-528"/>
<polygon fill="black" stroke="black" points="349.17,-531.5 359.17,-528 349.17,-524.5 349.17,-531.5"/>
</g>
<!-- audioconvert/resample (vo1) -->
<g id="node57" class="node">
<title>audioconvert/resample (vo1)</title>
<polygon fill="lightgrey" stroke="lightgrey" points="668.69,-546 525.97,-546 525.97,-510 668.69,-510 668.69,-546"/>
<text xml:space="preserve" text-anchor="middle" x="597.33" y="-525" font-family="Arial" font-size="10.00">audioconvert/resample (vo1)</text>
</g>
<!-- volume (vo1)&#45;&gt;audioconvert/resample (vo1) -->
<g id="edge52" class="edge">
<title>volume (vo1)-&gt;audioconvert/resample (vo1)</title>
<path fill="none" stroke="black" d="M435.17,-528C457.38,-528 486.74,-528 514.32,-528"/>
<polygon fill="black" stroke="black" points="514.09,-531.5 524.09,-528 514.09,-524.5 514.09,-531.5"/>
</g>
<!-- audioconvert/resample (vo1)&#45;&gt;agrp_pgm_stereo -->
<g id="edge53" class="edge">
<title>audioconvert/resample (vo1)-&gt;agrp_pgm_stereo</title>
<path fill="none" stroke="black" d="M650.93,-509.66C657.03,-506.99 663.08,-504.09 668.69,-501 697.24,-485.28 726.7,-462.86 747.73,-445.59"/>
<polygon fill="black" stroke="black" points="749.87,-448.36 755.32,-439.27 745.39,-442.98 749.87,-448.36"/>
</g>
<!-- volume\n(pgm_duck) -->
<g id="node59" class="node">
<title>volume\n(pgm_duck)</title>
<polygon fill="lightgrey" stroke="lightgrey" points="1118.29,-438 1049.5,-438 1049.5,-402 1118.29,-402 1118.29,-438"/>
<text xml:space="preserve" text-anchor="middle" x="1083.89" y="-423" font-family="Arial" font-size="10.00">volume</text>
<text xml:space="preserve" text-anchor="middle" x="1083.89" y="-411" font-family="Arial" font-size="10.00">(pgm_duck)</text>
</g>
<!-- audioconvert/resample (out)&#45;&gt;volume\n(pgm_duck) -->
<g id="edge55" class="edge">
<title>audioconvert/resample (out)-&gt;volume\n(pgm_duck)</title>
<path fill="none" stroke="black" d="M1006.59,-420C1017.24,-420 1027.98,-420 1037.91,-420"/>
<polygon fill="black" stroke="black" points="1037.63,-423.5 1047.63,-420 1037.63,-416.5 1037.63,-423.5"/>
</g>
<!-- volume\n(pgm_duck)&#45;&gt;tee_agrp_pgm_stereo -->
<g id="edge56" class="edge">
<title>volume\n(pgm_duck)-&gt;tee_agrp_pgm_stereo</title>
<path fill="none" stroke="black" d="M1118.46,-420C1128.02,-420 1138.81,-420 1149.7,-420"/>
<polygon fill="black" stroke="black" points="1149.54,-423.5 1159.54,-420 1149.54,-416.5 1149.54,-423.5"/>
</g>
<!-- appsink\n(apslevel_...) -->
<g id="node61" class="node">
<title>appsink\n(apslevel_...)</title>
<polygon fill="lightgrey" stroke="lightgrey" points="1524.1,-384 1450.86,-384 1450.86,-348 1524.1,-348 1524.1,-384"/>
<text xml:space="preserve" text-anchor="middle" x="1487.48" y="-369" font-family="Arial" font-size="10.00">appsink</text>
<text xml:space="preserve" text-anchor="middle" x="1487.48" y="-357" font-family="Arial" font-size="10.00">(apslevel_...)</text>
</g>
<!-- queue (level)&#45;&gt;appsink\n(apslevel_...) -->
<g id="edge58" class="edge">
<title>queue (level)-&gt;appsink\n(apslevel_...)</title>
<path fill="none" stroke="black" d="M1401.76,-366C1413.6,-366 1426.91,-366 1439.42,-366"/>
<polygon fill="pink" stroke="black" points="1439.1,-369.5 1449.1,-366 1439.1,-362.5 1439.1,-369.5"/>
</g>
<!-- interaudiosink\n(rec_pgm_a...) -->
<g id="node63" class="node">
<title>interaudiosink\n(rec_pgm_a...)</title>
<polygon fill="lightgrey" stroke="lightgrey" points="1527.99,-438 1446.97,-438 1446.97,-402 1527.99,-402 1527.99,-438"/>
<text xml:space="preserve" text-anchor="middle" x="1487.48" y="-423" font-family="Arial" font-size="10.00">interaudiosink</text>
<text xml:space="preserve" text-anchor="middle" x="1487.48" y="-411" font-family="Arial" font-size="10.00">(rec_pgm_a...)</text>
</g>
<!-- queue (rec_a)&#45;&gt;interaudiosink\n(rec_pgm_a...) -->
<g id="edge60" class="edge">
<title>queue (rec_a)-&gt;interaudiosink\n(rec_pgm_a...)</title>
<path fill="none" stroke="black" d="M1404.08,-420C1413.93,-420 1424.68,-420 1435.06,-420"/>
<polygon fill="pink" stroke="black" points="1435.04,-423.5 1445.04,-420 1435.04,-416.5 1435.04,-423.5"/>
</g>
<!-- pulsesink\n(asink...) -->
<g id="node65" class="node">
<title>pulsesink\n(asink...)</title>
<polygon fill="lightgrey" stroke="lightgrey" points="1516.33,-492 1458.64,-492 1458.64,-456 1516.33,-456 1516.33,-492"/>
<text xml:space="preserve" text-anchor="middle" x="1487.48" y="-477" font-family="Arial" font-size="10.00">pulsesink</text>
<text xml:space="preserve" text-anchor="middle" x="1487.48" y="-465" font-family="Arial" font-size="10.00">(asink...)</text>
</g>
<!-- identity\n(adel...)&#45;&gt;pulsesink\n(asink...) -->
<g id="edge62" class="edge">
<title>identity\n(adel...)-&gt;pulsesink\n(asink...)</title>
<path fill="none" stroke="black" d="M1391.71,-474C1407.79,-474 1428.69,-474 1446.77,-474"/>
<polygon fill="pink" stroke="black" points="1446.65,-477.5 1456.65,-474 1446.65,-470.5 1446.65,-477.5"/>
</g>
</g>
</svg>